<svg xmlns="http://www.w3.org/2000/svg" xmlns:xlink="http://www.w3.org/1999/xlink" width="30pt" height="30pt" viewBox="0 0 30 30" version="1.1"><g id="surface1"><path d="M 15 0 C 11.023438 0 7.207031 1.582031 4.394531 4.394531 C 1.582031 7.207031 0 11.023438 0 15 C 0 18.980469 1.582031 22.796875 4.394531 25.609375 C 7.207031 28.421875 11.023438 30.003906 15 30.003906 C 18.980469 30.003906 22.796875 28.421875 25.609375 25.609375 C 28.421875 22.796875 30.003906 18.980469 30.003906 15 C 30.003906 11.023438 28.421875 7.207031 25.609375 4.394531 C 22.796875 1.582031 18.980469 0 15 0 Z M 15.003906 2.542969 C 18.300781 2.542969 21.464844 3.851562 23.792969 6.183594 C 26.125 8.515625 27.433594 11.675781 27.433594 14.972656 C 27.433594 18.269531 26.125 21.433594 23.792969 23.761719 C 21.464844 26.09375 18.300781 27.402344 15.003906 27.402344 C 11.707031 27.402344 8.546875 26.09375 6.214844 23.761719 C 3.882812 21.433594 2.574219 18.269531 2.574219 14.972656 C 2.574219 11.675781 3.882812 8.515625 6.214844 6.183594 C 8.546875 3.851562 11.707031 2.542969 15.003906 2.542969 Z M 15.003906 2.542969 " style="stroke:none;fill-rule:evenodd;fill:rgb(15.294118%,38.431373%,20.784314%);fill-opacity:1;"></path><path d="M 27.433594 14.972656 C 27.433594 18.269531 26.125 21.433594 23.792969 23.761719 C 21.464844 26.09375 18.300781 27.402344 15.003906 27.402344 C 11.707031 27.402344 8.546875 26.09375 6.214844 23.761719 C 3.882812 21.433594 2.574219 18.269531 2.574219 14.972656 C 2.574219 11.675781 3.882812 8.515625 6.214844 6.183594 C 8.546875 3.851562 11.707031 2.542969 15.003906 2.542969 C 18.300781 2.542969 21.464844 3.851562 23.792969 6.183594 C 26.125 8.515625 27.433594 11.675781 27.433594 14.972656 Z M 27.433594 14.972656 " style="stroke:none;fill-rule:evenodd;fill:rgb(85.098039%,75.294118%,13.333333%);fill-opacity:1;"></path><path d="M 18.058594 6.144531 L 22.039062 6.144531 L 22.039062 23.804688 L 18.058594 23.804688 L 18.058594 16.378906 L 11.964844 16.378906 L 11.964844 23.804688 L 7.984375 23.804688 L 7.984375 6.144531 L 11.964844 6.144531 L 11.964844 13.660156 L 18.058594 13.660156 Z M 18.058594 6.144531 " style="stroke:none;fill-rule:evenodd;fill:rgb(15.294118%,38.431373%,20.784314%);fill-opacity:1;"></path></g></svg>
